<mxfile host="app.diagrams.net" agent="Mozilla/5.0 (Windows NT 10.0; Win64; x64) AppleWebKit/537.36 (KHTML, like Gecko) Chrome/135.0.0.0 Safari/537.36 Edg/135.0.0.0" version="26.2.13">
  <diagram id="C5RBs43oDa-KdzZeNtuy" name="Page-1">
    <mxGraphModel dx="996" dy="570" grid="1" gridSize="10" guides="1" tooltips="1" connect="1" arrows="1" fold="1" page="1" pageScale="1" pageWidth="827" pageHeight="1169" math="0" shadow="0">
      <root>
        <mxCell id="WIyWlLk6GJQsqaUBKTNV-0" />
        <mxCell id="WIyWlLk6GJQsqaUBKTNV-1" parent="WIyWlLk6GJQsqaUBKTNV-0" />
        <mxCell id="QL5p2Kg2bx8GruhxpByA-0" value="+------------------+&#xa;|     Bắt đầu      |&#xa;+------------------+&#xa;         |&#xa;         v&#xa;+------------------+&#xa;|  Nhập số a, b    |&#xa;+------------------+&#xa;         |&#xa;         v&#xa;+----------------------------+&#xa;| a &amp;lt; b ?                    |&#xa;+----------------------------+&#xa;      |          |&#xa;     Có         Không&#xa;      |            |&#xa;      v            v&#xa;+------------------+    +------------------+&#xa;| In &quot;a là nhỏ hơn&quot;|    | In &quot;b là nhỏ hơn&quot;|&#xa;+------------------+    +------------------+&#xa;       \             /&#xa;        v           v&#xa;     +------------------+&#xa;     |     Kết thúc     |&#xa;     +------------------+" style="text;whiteSpace=wrap;html=1;" vertex="1" parent="WIyWlLk6GJQsqaUBKTNV-1">
          <mxGeometry x="350" y="230" width="230" height="380" as="geometry" />
        </mxCell>
      </root>
    </mxGraphModel>
  </diagram>
</mxfile>
